<svg width="886px" height="146px" viewBox="0 0 886 146" version="1.1" xmlns="http://www.w3.org/2000/svg" xmlns:xlink="http://www.w3.org/1999/xlink">
    <g id="Portal" stroke="none" stroke-width="1" fill="none" fill-rule="evenodd">
        <g id="Artboard">
            <g id="Group-2">
                <g id="Group" fill="#CE3B3B">
                    <path d="M73.5,28 C89.1794306,28 103.00649,35.9309454 111.188398,48.0000573 L75.2820513,48 L59,73.9583333 L75.2820513,100 L110.489714,100.001437 C102.232672,111.505886 88.7415082,119 73.5,119 C48.3710439,119 28,98.6289561 28,73.5 C28,48.3710439 48.3710439,28 73.5,28 Z" id="Combined-Shape"></path>
                    <path d="M116.271976,57.9457349 C118.037182,62.7986581 119,68.0368899 119,73.5 C119,79.3290815 117.903864,84.9021465 115.90647,90.0243153 L113,90 L80,90 L71,74 L80,58 L113,58 Z" id="Combined-Shape"></path>
                    <path d="M21.2362656,57.9981168 L21.236,57.9991168 L41,58 L41,91 L21.8703866,90.9999568 L21.8703866,90.9999568 L2.23603795,91.000355 C0.775887547,85.2425381 0,79.2118781 0,73 C0,67.8579284 0.531654106,62.8400312 1.54299167,57.9982791 L21.2362656,57.9981168 Z" id="Combined-Shape"></path>
                    <path d="M73,0 C113.316787,0 146,32.6832133 146,73 C146,113.316787 113.316787,146 73,146 C41.8421765,146 15.2435702,126.47967 4.76650418,99.0013333 L25.3220454,99.0013967 C34.4714895,116.250933 52.6136739,128 73.5,128 C103.599519,128 128,103.599519 128,73.5 C128,43.4004811 103.599519,19 73.5,19 C51.8153793,19 33.0886762,31.6643512 24.3127046,50.0002398 L3.69706363,50.0001571 C13.3322242,20.9527408 40.7192247,0 73,0 Z" id="Combined-Shape"></path>
                </g>
                <path d="M247.2,102.4 L247.2,68.44 L261.12,60.4 L291.48,60.4 L305.4,68.44 L305.4,84.4 L288.6,84.4 L288.6,74.8 L264,74.8 L264,94.84 L291.48,94.84 L305.4,102.88 L305.4,137.56 L291.48,145.6 L259.92,145.6 L246,137.56 L246,121.6 L262.8,121.6 L262.8,131.2 L288.6,131.2 L288.6,110.44 L261.12,110.44 L247.2,102.4 Z M325.8,89.08 L325.8,73.36 L347.4,61 L361.8,61 L361.8,130.6 L381,130.6 L381,145 L325.8,145 L325.8,130.6 L345,130.6 L345,78.04 L325.8,89.08 Z M426.6,145 L426.6,61 L470.88,61 L484.8,69.04 L484.8,106.48 L470.88,114.52 L443.4,114.52 L443.4,145 L426.6,145 Z M443.4,75.4 L443.4,100.12 L468,100.12 L468,75.4 L443.4,75.4 Z M565.32,145 L546.84,145 L528.84,113.32 L518.4,113.32 L518.4,145 L501.6,145 L501.6,61 L547.08,61 L561,69.04 L561,105.28 L547.08,113.32 L565.32,145 Z M518.4,75.4 L518.4,98.92 L544.2,98.92 L544.2,75.4 L518.4,75.4 Z M646.8,137.56 L632.88,145.6 L595.32,145.6 L581.4,137.56 L581.4,68.44 L595.32,60.4 L632.88,60.4 L646.8,68.44 L646.8,137.56 Z M598.2,74.8 L598.2,131.2 L630,131.2 L630,74.8 L598.2,74.8 Z M695.4,131.2 L695.4,61 L712.2,61 L712.2,137.56 L698.28,145.6 L672.72,145.6 L658.8,137.56 L658.8,114.4 L675.6,114.4 L675.6,131.2 L695.4,131.2 Z M749.4,109 L749.4,130.6 L782.88,130.6 L782.88,145 L732.6,145 L732.6,61 L782.88,61 L782.88,75.4 L749.4,75.4 L749.4,94.6 L775.68,94.6 L775.68,109 L749.4,109 Z M843.48,120.4 L860.28,120.4 L860.28,137.56 L846.36,145.6 L812.4,145.6 L798.48,137.56 L798.48,68.44 L812.4,60.4 L846.36,60.4 L860.28,68.44 L860.28,85.6 L843.48,85.6 L843.48,74.8 L815.28,74.8 L815.28,131.2 L843.48,131.2 L843.48,120.4 Z M911.76,75.4 L911.76,145 L894.96,145 L894.96,75.4 L872.28,75.4 L872.28,61 L934.44,61 L934.44,75.4 L911.76,75.4 Z" id="S1PROJECT" fill="#404040" fill-rule="nonzero"></path>
                <rect id="Rectangle" x="0" y="0" width="989" height="201"></rect>
            </g>
        </g>
    </g>
</svg>
